<svg xmlns="http://www.w3.org/2000/svg" width="20" height="16" viewBox="0 0 20 16" fill="none">
  <path d="M19.7519 2.17034C19.0355 2.48165 18.2774 2.68674 17.5018 2.77914C18.3169 2.3018 18.93 1.54347 19.2259 0.646363C18.4552 1.09703 17.6134 1.41324 16.7366 1.58144C16.3674 1.19449 15.9233 0.88666 15.4314 0.676661C14.9395 0.466662 14.4101 0.358882 13.8752 0.35987C11.7098 0.35987 9.95745 2.08678 9.95745 4.21558C9.95591 4.51169 9.98984 4.80692 10.0585 5.09496C8.50576 5.02216 6.9853 4.62606 5.5944 3.93198C4.2035 3.2379 2.97279 2.26113 1.98101 1.06416C1.63308 1.65073 1.44907 2.31997 1.44822 3.00197C1.44822 4.33893 2.14575 5.52072 3.19901 6.21307C2.57498 6.19826 1.96374 6.0331 1.41718 5.73161V5.77936C1.41718 7.64952 2.77006 9.20533 4.56064 9.55947C4.22393 9.64923 3.87695 9.69471 3.52847 9.69476C3.28121 9.69519 3.0345 9.6712 2.79195 9.62313C3.28973 11.1551 4.73851 12.2692 6.45468 12.301C5.06017 13.3758 3.34807 13.9566 1.58749 13.9524C1.27498 13.9519 0.962758 13.9333 0.652405 13.8966C2.44345 15.0403 4.52541 15.6453 6.65045 15.6395C13.8669 15.6395 17.8093 9.7624 17.8093 4.66522C17.8093 4.4981 17.805 4.33098 17.797 4.16783C18.5622 3.62352 19.2242 2.9471 19.7519 2.17034Z" fill="#1C2752"/>
</svg>